<svg width="39" height="28" viewBox="0 0 39 28" fill="none" xmlns="http://www.w3.org/2000/svg">
<path id="Vector" d="M15.51 19.9062V8.09781L25.7031 14.0026L15.51 19.9062ZM38.1821 4.38063C37.7218 2.65778 36.4215 1.32558 34.7688 0.854143L34.7337 0.846197C30.5818 0.308551 25.7798 0.00132416 20.9063 0.00132416C20.4109 0.00132416 19.9167 0.00397262 19.4239 0.0105939L19.4994 0.00926973C19.0807 0.00397272 18.5878 0 18.0924 0C13.2189 0 8.41426 0.307226 3.69806 0.901816L4.26239 0.843549C2.5759 1.32425 1.2756 2.65513 0.824392 4.34355L0.816591 4.37798C0.296469 7.17083 0 10.3848 0 13.6689C0 13.7855 6.07688e-08 13.902 0.00130036 14.0172V13.9987C0.00130036 14.0967 0 14.2132 0 14.3297C0 17.6139 0.29777 20.8265 0.866002 23.9425L0.816591 23.6194C1.2769 25.3422 2.5772 26.6744 4.22989 27.1459L4.265 27.1538C8.41686 27.6915 13.2189 27.9987 18.0924 27.9987C18.5865 27.9987 19.0807 27.996 19.5748 27.9894L19.4994 27.9907C19.918 27.996 20.4122 28 20.9063 28C25.7811 28 30.5844 27.6928 35.3006 27.0982L34.7363 27.1565C36.4241 26.6771 37.7244 25.3449 38.1769 23.6565L38.1847 23.622C38.7035 20.8292 39 17.6152 39 14.3324C39 14.2159 39 14.0993 38.9987 13.9841V14.0013C38.9987 13.9033 39 13.7868 39 13.6703C39 10.3861 38.7022 7.17348 38.134 4.05751L38.1821 4.38063Z" fill="#FF0000"/>
</svg>
