<svg t="1724900141031" class="icon" viewBox="0 0 1024 1024" version="1.1" xmlns="http://www.w3.org/2000/svg" p-id="9646" width="200" height="200" fill="currentColor"><path d="M916.992 273.92a153.6 153.6 0 0 0-135.338667-109.909333C724.309333 158.549333 631.466667 151.893333 512 151.893333s-212.309333 6.656-269.653333 12.117334a153.6 153.6 0 0 0-135.338667 109.909333C85.333333 351.061333 57.856 485.888 48.981333 690.005333a188.928 188.928 0 0 0 48.469334 139.093334 143.872 143.872 0 0 0 106.325333 44.885333c11.605333 0 22.357333 0 32.426667-0.853333 71.168-4.608 129.536-56.149333 156.330666-136.533334l0.853334-2.901333a40.106667 40.106667 0 0 1 25.6-27.306667 377.514667 377.514667 0 0 1 93.013333-11.264 378.538667 378.538667 0 0 1 93.013333 10.410667 40.106667 40.106667 0 0 1 25.6 27.306667v2.389333c26.965333 81.749333 85.333333 133.290667 156.330667 137.728 10.24 0 20.992 1.024 32.597333 1.024a143.872 143.872 0 0 0 106.325334-44.885333 188.928 188.928 0 0 0 48.469333-139.093334c-8.021333-203.946667-35.669333-338.944-57.344-416.085333z m-509.781333 180.906667h-58.368v58.197333a25.6 25.6 0 0 1-51.2 0v-58.197333H238.933333a25.6 25.6 0 0 1 0-51.2h58.197334v-58.368a25.6 25.6 0 0 1 51.2 0v58.368h58.368a25.6 25.6 0 0 1 0 51.2z m230.570666 0h-20.992a25.6 25.6 0 0 1 0-51.2h20.992a25.6 25.6 0 0 1 0 51.2z m88.576 58.197333a25.6 25.6 0 1 1-51.2 0v-20.992a25.6 25.6 0 0 1 51.2 0z m0-146.773333a25.6 25.6 0 0 1-51.2 0v-20.992a25.6 25.6 0 0 1 51.2 0zM785.066667 454.826667h-21.504a25.6 25.6 0 0 1 0-51.2H785.066667a25.6 25.6 0 0 1 0 51.2z" p-id="9647"></path></svg>