<svg width="16" height="16" viewBox="0 0 16 16" fill="none" xmlns="http://www.w3.org/2000/svg">
<g id="Group 34560">
<path id="Vector" d="M15.306 16.002H0.693976C0.310361 16.002 0 15.6916 0 15.308V0.695929C0 0.312315 0.310361 0.00195312 0.693976 0.00195312H6.74892C7.13253 0.00195312 7.44289 0.312315 7.44289 0.695929C7.44289 1.07954 7.13253 1.38991 6.74892 1.38991H1.38795V14.614H14.612V9.28388C14.612 8.90027 14.9224 8.5899 15.306 8.5899C15.6896 8.5899 16 8.90027 16 9.28388V15.308C16 15.6916 15.6896 16.002 15.306 16.002Z" fill="#48B7F2"/>
<path id="Vector_2" d="M15.9982 0.647711V0.638072C15.9963 0.605301 15.9905 0.574458 15.9847 0.543614C15.9847 0.541687 15.9847 0.539759 15.9828 0.537831C15.9751 0.50506 15.9654 0.474217 15.9539 0.443374V0.441446C15.9423 0.410602 15.9269 0.381687 15.9115 0.352771C15.9115 0.350843 15.9095 0.350843 15.9095 0.348916C15.8941 0.321928 15.8768 0.29494 15.8575 0.26988C15.8556 0.267952 15.8536 0.264096 15.8517 0.262169C15.8421 0.250602 15.8344 0.240964 15.8247 0.229398C15.8247 0.22747 15.8228 0.22747 15.8228 0.225542C15.8131 0.213976 15.8035 0.204337 15.7919 0.194699L15.7842 0.186988C15.7746 0.177349 15.763 0.167711 15.7534 0.158072L15.7515 0.156145C15.7399 0.146506 15.7283 0.136867 15.7148 0.129157C15.7129 0.127229 15.709 0.125301 15.7071 0.123374C15.6801 0.104096 15.6531 0.0886748 15.6242 0.0732531L15.6223 0.0713252C15.5915 0.0559036 15.5606 0.0424096 15.5278 0.032771C15.497 0.0231325 15.4642 0.013494 15.4315 0.00963855C15.4295 0.00963855 15.4276 0.00963858 15.4257 0.00771087L15.3794 0.00192768H15.3736C15.3601 -2.94433e-08 15.3486 0 15.3351 0H10.4503C10.0666 0 9.75628 0.310361 9.75628 0.693976C9.75628 1.07759 10.0666 1.38795 10.4503 1.38795H13.631L7.5105 7.51036C7.23869 7.78217 7.23869 8.22169 7.5105 8.49157C7.64544 8.62651 7.82278 8.69398 8.00206 8.69398C8.17941 8.69398 8.35676 8.62651 8.49363 8.49157L14.6122 2.37108V5.5094C14.6122 5.89301 14.9225 6.20337 15.3062 6.20337C15.6898 6.20337 16.0001 5.89301 16.0001 5.5094V0.695904C16.0001 0.680482 16.0001 0.663133 15.9982 0.647711Z" fill="#48B7F2"/>
</g>
</svg>
