<?xml version="1.0" encoding="utf-8"?>
<!-- Generator: Adobe Illustrator 24.0.0, SVG Export Plug-In . SVG Version: 6.00 Build 0)  -->
<svg version="1.1" id="图层_1" xmlns="http://www.w3.org/2000/svg" xmlns:xlink="http://www.w3.org/1999/xlink" x="0px" y="0px"
	 viewBox="0 0 1834 1833.7" style="enable-background:new 0 0 1834 1833.7;" xml:space="preserve">
<style type="text/css">
	.st0{fill:none;}
	.st1{fill:#F6B133;}
</style>
<circle class="st0" cx="917" cy="917" r="785.7"/>
<g>
	<path class="st1" d="M917,0C410.5,0,0,410.5,0,917s410.5,916.7,917,916.7s917-410.5,917-917S1423.2,0,917,0z M917,1702.7
		c-434,0-785.7-351.7-785.7-785.7S483,131.3,917,131.3S1702.7,483,1702.7,917S1351,1702.7,917,1702.7z"/>
	<path class="st1" d="M814.7,575.6H695.5c-9.7,0-17.3-7.9-17.3-17.3v-87.1c0-9.7,7.9-17.3,17.3-17.3h119.2c9.7,0,17.3,7.9,17.3,17.3
		v87.1C832.3,567.7,824.4,575.6,814.7,575.6z M1096.3,575.6H977.1c-9.7,0-17.3-7.9-17.3-17.3v-87.1c0-9.7,7.9-17.3,17.3-17.3h119.2
		c9.7,0,17.3,7.9,17.3,17.3v87.1C1113.6,567.7,1106,575.6,1096.3,575.6z M567.7,920.1H410.8V808.5c0,0,6.2-154.1,151-156.2h661.3
		v-90.9h157.6v87.8c0,0-4.1,158.6-150,160.7l-116.8,3.1l1.7,539.7c0,0,1.7,9-9,14.9l-121.6,43.2c0,0-27,11.1-28-16.2V810.6H835.5
		v536.6c0,0,3.5,15.9-14.2,23.5l-111.6,39.4c0,0-34.9,13.1-34.6-21.8V809.5H568.4L567.7,920.1z"/>
</g>
</svg>
