<svg width="20.8" height="20.8" viewBox="0 0 469 418" fill="none" xmlns="http://www.w3.org/2000/svg">
<path d="M465.922 329.567L388.664 412.296C386.993 414.093 384.97 415.527 382.719 416.509C380.469 417.49 378.04 417.998 375.584 418H9.35019C7.60344 417.999 5.89488 417.489 4.43372 416.533C2.97256 415.578 1.82221 414.217 1.12354 412.618C0.424868 411.019 0.208187 409.252 0.500032 407.532C0.791877 405.812 1.57959 404.214 2.7667 402.935L79.9375 320.206C81.6084 318.409 83.6322 316.975 85.8826 315.994C88.133 315.012 90.5617 314.505 93.0172 314.502H459.251C461.014 314.466 462.748 314.951 464.236 315.896C465.723 316.842 466.897 318.206 467.61 319.816C468.323 321.427 468.543 323.212 468.243 324.947C467.943 326.682 467.135 328.289 465.922 329.567ZM388.664 162.934C386.987 161.145 384.962 159.717 382.713 158.736C380.464 157.755 378.038 157.243 375.584 157.23H9.35019C7.60344 157.231 5.89488 157.741 4.43372 158.697C2.97256 159.653 1.82221 161.013 1.12354 162.612C0.424868 164.211 0.208187 165.978 0.500032 167.698C0.791877 169.418 1.57959 171.016 2.7667 172.295L79.9375 255.068C81.6149 256.857 83.64 258.285 85.8889 259.266C88.1378 260.246 90.5633 260.759 93.0172 260.772H459.251C460.994 260.762 462.697 260.247 464.152 259.287C465.606 258.328 466.75 256.967 467.443 255.37C468.137 253.773 468.35 252.009 468.056 250.293C467.763 248.577 466.976 246.983 465.791 245.706L388.664 162.934ZM9.35019 103.5H375.584C378.04 103.498 380.469 102.99 382.719 102.009C384.97 101.028 386.993 99.5934 388.664 97.796L465.922 15.0673C466.828 14.1111 467.511 12.967 467.922 11.7167C468.333 10.4664 468.463 9.14071 468.302 7.83448C468.141 6.52826 467.693 5.27373 466.99 4.16058C466.286 3.04743 465.346 2.10315 464.235 1.39524C462.748 0.450197 461.014 -0.034569 459.251 0.00191818H93.0172C90.5617 0.00449949 88.133 0.512305 85.8826 1.49367C83.6322 2.47503 81.6084 3.90889 79.9375 5.70585L2.7667 88.4346C1.57959 89.7143 0.791877 91.3119 0.500032 93.0318C0.208187 94.7517 0.424868 96.5193 1.12354 98.1181C1.82221 99.7169 2.97256 101.078 4.43372 102.033C5.89488 102.989 7.60344 103.499 9.35019 103.5Z" fill="white"/>
</svg>
