<svg width="167" height="167" viewBox="0 0 167 167" fill="none" xmlns="http://www.w3.org/2000/svg">
<path d="M138.999 43.1668C138.411 47.7248 137.71 53.5996 136.89 59.454C134.098 79.4724 131.302 99.4857 128.421 119.489C128.004 122.393 127.407 125.343 126.397 128.064C124.426 133.382 120.705 135.169 115.72 133.255C113.321 132.331 110.99 131.009 108.862 129.488C99.0183 122.47 89.2507 115.324 79.4641 108.219C78.848 107.77 78.2224 107.321 77.6774 106.779C75.2793 104.416 74.8054 101.155 76.6252 98.2607C77.5447 96.7958 78.739 95.4994 79.9427 94.2846C88.5445 85.5718 97.1937 76.9152 105.796 68.2076C107.378 66.6049 108.843 64.8593 110.326 63.1392C111.137 62.2052 111.876 61.0823 110.957 59.8624C109.976 58.5608 108.753 59.1427 107.705 59.8624C104.805 61.853 101.909 63.8487 99.0752 65.9465C89.5777 72.9647 80.1276 80.0645 70.6064 87.0469C67.7249 89.16 64.7391 91.1455 61.6586 92.9065C57.9193 95.04 53.981 95.3513 49.8341 93.9987C44.4076 92.2276 38.8769 90.8444 33.4267 89.1651C31.7917 88.6649 30.1661 87.9197 28.7254 86.9653C26.7159 85.6382 26.4078 83.4128 28.0856 81.6468C29.3604 80.3044 30.9576 79.1611 32.5973 78.3954C56.2653 67.3859 79.9522 56.4171 103.668 45.5249C111.099 42.1153 118.625 38.9457 126.132 35.725C127.615 35.087 129.16 34.5561 130.724 34.2397C136.141 33.127 139.065 35.8526 138.999 43.1668Z" fill="white"/>
</svg>
