<svg width="167" height="167" viewBox="0 0 167 167" fill="none" xmlns="http://www.w3.org/2000/svg">
<path d="M75.3249 94.8023C72.7697 97.5818 70.268 100.304 67.7701 103.025C61.1664 110.209 54.5626 117.389 47.9627 124.576C45.2318 127.552 42.5124 130.535 39.7662 133.5C39.5447 133.738 39.1704 133.962 38.861 133.965C36.027 134 33.1892 133.988 30.3552 133.985C30.2788 133.985 30.2024 133.946 30 133.892C43.7231 118.951 57.389 104.069 71.1159 89.124C57.5341 70.8224 43.9408 52.5055 30.2559 34.0654C30.6875 34.0423 30.9587 34.0192 31.226 34.0192C41.1794 34.0154 51.1328 34.0192 61.0823 34C61.6591 34 62.0143 34.1809 62.3466 34.6314C69.6684 44.5174 76.9978 54.3996 84.3272 64.2779C85.7366 66.1759 87.1421 68.0738 88.6088 70.0487C89.7852 68.7783 90.9348 67.5425 92.0768 66.299C97.4851 60.4128 102.89 54.5228 108.298 48.6366C112.625 43.9207 116.949 39.201 121.288 34.4966C121.494 34.2733 121.83 34.0385 122.113 34.0346C125.031 34 127.949 34.0154 131.142 34.0154C118.289 48.0129 105.575 61.8565 92.8292 75.7385C107.198 95.1026 121.555 114.455 136 133.919C135.706 133.95 135.553 133.977 135.404 133.977C125.283 133.981 115.161 133.973 105.04 134C104.448 134 104.188 133.7 103.894 133.303C95.1935 121.569 86.4928 109.839 77.7884 98.1092C76.9863 97.039 76.1881 95.9649 75.3249 94.8023ZM122.12 126.967C121.872 126.605 121.723 126.374 121.559 126.154C114.333 116.415 107.102 106.675 99.876 96.935C91.7369 85.9595 83.5977 74.984 75.4586 64.0123C69.9663 56.6055 64.4549 49.2063 58.9778 41.7841C58.5577 41.2144 58.149 40.9949 57.4501 41.0026C53.3404 41.0373 49.2307 41.018 45.1172 41.0219C44.8231 41.0219 44.5328 41.045 44.1394 41.0642C44.3801 41.403 44.5405 41.6301 44.7047 41.8573C48.5891 47.0929 52.4696 52.3323 56.3539 57.5679C65.7687 70.2527 75.1874 82.9375 84.5984 95.6223C92.1685 105.82 99.7386 116.018 107.286 126.231C107.706 126.801 108.134 126.994 108.825 126.99C112.908 126.955 116.991 126.974 121.07 126.974C121.375 126.967 121.673 126.967 122.12 126.967Z" fill="white"/>
</svg>
