<svg width="20.8" height="20.8" xmlns="http://www.w3.org/2000/svg"  viewBox="0 0 51 54" fill="none">
<path d="M50.5446 48.3239C50.5446 49.0909 50.3929 49.858 50.0893 50.4716C49.7857 51.0852 49.4821 51.6989 49.0268 52.3125C48.5714 52.7727 47.9643 53.233 47.3571 53.5398C46.75 53.8466 45.9911 54 45.2321 54H5.61607C4.85714 54 4.09821 53.8466 3.49107 53.5398C2.73214 53.233 2.125 52.9261 1.66964 52.3125C1.21429 51.8523 0.758928 51.2386 0.455357 50.4716C0.151786 49.858 -6.67027e-08 49.0909 0 48.3239V17.7955C0 16.2614 0.607143 14.8807 1.66964 13.8068C2.73214 12.733 4.09821 12.1193 5.61607 12.1193H45.3839C46.9018 12.1193 48.2679 12.733 49.3304 13.8068C50.3929 14.8807 51 16.2614 51 17.7955V26.0795H36.8839C35.3661 26.0795 34 26.5398 32.9375 27.6136C31.875 28.6875 31.2679 29.9148 31.2679 31.6023C31.2679 32.6761 31.5714 33.5966 31.875 34.3636C32.1786 35.1307 32.7857 35.7443 33.5446 36.2045C34.3036 36.8182 35.3661 37.125 36.7321 37.125H50.5446V48.3239ZM42.3482 9.35795H14.875C17 8.28409 19.125 7.05682 21.0982 5.98295L26.1071 3.22159C27.7768 2.30114 28.9911 1.6875 30.0536 1.07386C31.4196 0.306818 32.7857 0 33.8482 0C34.9107 0 35.9732 0.306818 36.7321 0.613636C37.6429 1.07386 38.4018 1.6875 39.0089 2.45455L42.3482 9.35795ZM34.1518 31.6023C34.1518 30.8352 34.4554 30.2216 34.9107 29.608C35.3661 29.1477 36.125 28.8409 36.8839 28.8409C37.6429 28.8409 38.25 29.1477 38.8571 29.608C39.3125 30.0682 39.6161 30.8352 39.6161 31.6023C39.6161 32.3693 39.3125 32.983 38.8571 33.5966C38.4018 34.2102 37.6429 34.3636 36.8839 34.3636C36.125 34.3636 35.5179 34.0568 34.9107 33.5966C34.4554 33.1364 34.1518 32.5227 34.1518 31.6023Z" fill="white"/>
</svg>