<svg xmlns="http://www.w3.org/2000/svg" width="459" height="474" viewBox="0 0 459 474" fill="none">
  <path d="M456.28 346.45C456.98 351.27 456.45 356.12 455.58 360.9C451.89 381.11 443.73 399.54 432.94 416.87C423.55 431.98 412.29 445.49 398.01 456.29C388.93 463.17 379.04 468.49 367.82 470.96C365.29 471.51 362.69 471.81 360.09 471.9C347.19 472.4 334.38 472.21 321.89 468.06C294.98 459.09 277.19 441.21 268.69 414.12C264.24 399.89 262.69 385.2 263.3 370.38C264.19 349.14 265.35 327.88 266.79 306.66C268.03 288.19 269.78 269.75 271.4 251.28C272.73 236 274.19 220.74 275.61 205.46C277.66 183.41 279.71 161.37 281.79 139.34C282.79 128.69 283.8 118.01 284.82 107.36C285.3 102.32 283.95 100.61 278.99 100.61C250.2 100.59 221.38 100.59 192.59 100.61C188.03 100.61 186.74 101.96 186.43 106.5C184.64 133.79 183.09 161.12 180.97 188.38C178.87 215.36 176.36 242.3 173.66 269.21C171.74 288.35 169.56 307.48 166.78 326.51C162.5 355.72 157.15 384.73 148.79 413.1C145.69 423.64 142.15 434.08 136.76 443.73C129.88 456.02 120.21 465.27 106.59 469.73C103.21 470.84 99.5599 471.56 95.9999 471.78C87.7699 472.3 79.4799 472.83 71.4199 470.45C56.9499 466.17 45.7099 457.9 40.0499 443.45C35.5099 431.82 36.4899 420.2 41.2299 408.79C45.5699 398.29 51.3099 388.6 57.9499 379.45C70.7199 361.88 83.0299 344.04 93.3599 324.88C108.6 296.59 120.1 266.93 126.78 235.4C131.89 211.32 135.8 187.05 138.52 162.6C140.59 144.05 142.36 125.47 144.24 106.92C144.68 102.55 143.08 100.59 138.74 100.66C124.42 100.86 110.1 99.9601 95.7999 101.64C76.9399 103.87 60.3499 110.57 47.0799 124.67C36.7099 135.69 27.9799 147.9 19.8199 160.58C18.4899 162.65 17.1799 164.75 15.5899 166.6C13.2099 169.37 10.0699 170.81 6.37994 170.64C2.94994 170.49 1.28993 168.94 1.17993 165.55C1.08993 162.97 1.13994 160.27 1.85994 157.82C8.92994 133.57 18.0299 110.19 31.5199 88.6901C39.2299 76.3801 48.0399 64.9601 58.8299 55.1201C70.2199 44.7301 83.6899 39.0801 98.7499 36.5701C118.09 33.3601 137.58 32.6001 157.14 32.6001C240.07 32.6001 322.99 32.6401 405.92 32.4901C411.64 32.4901 417.47 31.5101 423.01 30.0501C431.59 27.7801 438.12 22.3201 442.92 14.8601C445.28 11.2101 447.53 7.50009 449.75 3.77009C450.82 1.96009 452.24 1.09009 454.36 1.17009C456.37 1.26009 457.7 1.98009 457.83 4.18009C457.85 4.62009 457.92 5.05009 457.92 5.47009C458.47 29.5301 453.99 52.4001 441.77 73.3801C435.66 83.8601 427.49 92.3101 416.12 97.1701C410.9 99.4001 405.49 100.71 399.7 100.66C385.07 100.53 370.47 100.62 355.85 100.62C354.85 100.62 353.82 100.58 352.82 100.64C349.37 100.84 348.13 101.91 347.76 105.29C347.41 108.46 347.17 111.64 346.97 114.81C345.27 140.5 343.56 166.22 341.88 191.93C340.11 219.08 338.17 246.22 336.71 273.39C335.66 292.9 335.44 312.46 336.56 331.98C337.21 343.68 338.76 355.27 341.52 366.73C345.65 383.89 357.17 393.19 373.41 397.49C382.34 399.85 391.42 400.39 400.39 397.45C408.2 394.9 414.95 390.44 421.11 385.07C430.13 377.23 437.53 367.98 444.62 358.44C446.96 355.3 449.29 352.18 451.74 349.12C452.68 347.94 453.94 347 455.06 345.95C455.49 346.08 455.88 346.28 456.28 346.45Z" stroke="white" stroke-width="2" stroke-miterlimit="10"/>
</svg>